#!OML:ASF H:\Dans Jumps\Project 1\Capture day 1\Session 1\subject.ASF
:FULLY-SPECIFIED
:DEGREES
148
root 0.244526 14.7474 -15.9231 25.5667 -0.0863483 -1.45297
lowerback 21.8529 0.549956 -1.65231
upperback 6.82063 0.525788 2.55789
thorax -4.79362 0.233922 3.56653
lowerneck -20.8518 0.158003 -1.55993
upperneck 10.9973 0.819044 -1.02962
head 6.73647 0.228254 0.00867727
rclavicle -5.36719e-015 -1.98785e-015
rhumerus -51.8954 -17.2286 -64.3239
rradius 23.1915
rwrist 28.9484
rhand -16.1142 -25.1624
rfingers 7.12502
rthumb 10.09 -54.9005
lclavicle -5.36719e-015 -1.98785e-015
lhumerus -46.8944 3.81515 82.239
lradius 15.9783
lwrist 10.8725
lhand -22.9351 -2.06223
lfingers 7.12502
lthumb 3.5058 27.8887
rfemur -72.0896 -1.63064 20.9374
rtibia 75.6792
rfoot -31.3871 -13.7866
rtoes -0.108384
lfemur -71.8823 6.47647 -22.1036
ltibia 74.8373
lfoot -26.1999 17.2221
ltoes -9.39851
149
root 0.24172 14.7355 -15.9087 25.9584 -0.010699 -1.41614
lowerback 22.1933 0.569133 -1.6853
upperback 6.68868 0.544679 2.57125
thorax -5.11216 0.249358 3.59872
lowerneck -21.0933 0.134249 -1.6125
upperneck 10.8048 0.800576 -1.0058
head 6.71205 0.220412 0.0227407
rclavicle 4.17448e-015 -2.5842e-015
rhumerus -51.7284 -17.2973 -64.3862
rradius 22.9408
rwrist 28.993
rhand -16.1462 -25.144
rfingers 7.12502
rthumb 10.0591 -54.8836
lclavicle 4.17448e-015 -2.5842e-015
lhumerus -46.5914 4.38453 81.7624
lradius 15.4299
lwrist 10.134
lhand -22.7179 -2.09939
lfingers 7.12502
lthumb 3.7155 27.848
rfemur -72.5405 -1.45551 20.82
rtibia 75.8666
rfoot -31.5509 -13.9277
rtoes 0.129219
lfemur -72.3299 6.32827 -22.1093
ltibia 75.0101
lfoot -26.2349 17.5934
ltoes -8.96866
150
root 0.238902 14.7273 -15.8911 26.3312 0.0800888 -1.37828
lowerback 22.5212 0.582053 -1.70625
upperback 6.5617 0.558143 2.58668
thorax -5.41873 0.262085 3.62762
lowerneck -21.337 0.109752 -1.66794
upperneck 10.6161 0.782867 -0.985283
head 6.68909 0.212514 0.0362443
rclavicle 2.18663e-015 1.64991e-014
rhumerus -51.4418 -17.3643 -64.5062
rradius 22.6752
rwrist 29.1651
rhand -16.1574 -25.0631
rfingers 7.12502
rthumb 10.0483 -54.8032
lclavicle 2.18663e-015 1.64991e-014
lhumerus -46.166 5.0151 81.2506
lradius 14.8489
lwrist 9.25768
lhand -22.5648 -2.17054
lfingers 7.12502
lthumb 3.86338 27.7742
rfemur -72.9307 -1.2985 20.707
rtibia 76.0131
rfoot -31.6949 -14.0619
rtoes 0.383213
lfemur -72.715 6.17028 -22.1043
ltibia 75.1439
lfoot -26.2696 17.9768
ltoes -8.51131
151
root 0.236096 14.7226 -15.8698 26.6805 0.186615 -1.33799
lowerback 22.8379 0.587889 -1.71785
upperback 6.43961 0.564751 2.60456
thorax -5.714 0.271388 3.65567
lowerneck -21.5775 0.0832157 -1.72879
upperneck 10.4315 0.764079 -0.963475
head 6.66679 0.204014 0.0508779
rclavicle -7.95139e-016 4.17448e-015
rhumerus -51.0336 -17.4403 -64.67
rradius 22.3917
rwrist 29.4839
rhand -16.1538 -24.9223
rfingers 7.12502
rthumb 10.0518 -54.6622
lclavicle -7.95139e-016 4.17448e-015
lhumerus -45.6222 5.74726 80.6788
lradius 14.2314
lwrist 8.1544
lhand -22.3806 -2.24586
lfingers 7.12502
lthumb 4.04121 27.6956
rfemur -73.2558 -1.16534 20.6003
rtibia 76.1204
rfoot -31.8212 -14.1818
rtoes 0.6538
lfemur -73.0344 6.00317 -22.0912
ltibia 75.2385
lfoot -26.3015 18.3579
ltoes -8.07576
152
root 0.233458 14.721 -15.845 27.01 0.30751 -1.29606
lowerback 23.1333 0.585882 -1.71841
upperback 6.32198 0.564 2.62333
thorax -5.99315 0.276922 3.68034
lowerneck -21.81 0.0570214 -1.78881
upperneck 10.2502 0.746068 -0.94405
head 6.6441 0.195764 0.0646532
rclavicle 9.93923e-016 -1.80894e-014
rhumerus -50.5018 -17.523 -64.8823
rradius 22.1012
rwrist 29.9158
rhand -16.142 -24.7677
rfingers 7.12502
rthumb 10.0632 -54.5071
lclavicle 9.93923e-016 -1.80894e-014
lhumerus -44.9632 6.62737 80.0165
lradius 13.5748
lwrist 6.73667
lhand -22.163 -2.33061
lfingers 7.12502
lthumb 4.25137 27.6067
rfemur -73.5227 -1.05706 20.5016
rtibia 76.192
rfoot -31.9269 -14.2897
rtoes 0.927596
lfemur -73.2974 5.826 -22.0704
ltibia 75.296
lfoot -26.3331 18.7138
ltoes -7.67399
153
root 0.231034 14.7223 -15.8162 27.3175 0.436201 -1.25132
lowerback 23.4046 0.579332 -1.71307
upperback 6.20799 0.558938 2.64118
thorax -6.25594 0.280148 3.70182
lowerneck -22.0304 0.031674 -1.84187
upperneck 10.0759 0.728149 -0.930187
head 6.62174 0.187356 0.0754827
rclavicle -1.59028e-015 -3.81667e-014
rhumerus -49.8513 -17.6252 -65.1294
rradius 21.8024
rwrist 30.4295
rhand -16.1455 -24.622
rfingers 7.12502
rthumb 10.0598 -54.3616
lclavicle -1.59028e-015 -3.81667e-014
lhumerus -44.2009 7.70036 79.2342
lradius 12.8894
lwrist 4.95172
lhand -21.9428 -2.42104
lfingers 7.12502
lthumb 4.46402 27.5119
rfemur -73.73 -0.972664 20.409
rtibia 76.2298
rfoot -32.016 -14.3859
rtoes 1.19071
lfemur -73.5028 5.64455 -22.0471
ltibia 75.3177
lfoot -26.3642 19.0296
ltoes -7.34465
154
root 0.228758 14.7261 -15.7836 27.6067 0.568753 -1.20894
lowerback 23.6483 0.570617 -1.70421
upperback 6.09392 0.552394 2.6611
thorax -6.50492 0.282502 3.72394
lowerneck -22.2372 0.00669982 -1.88949
upperneck 9.91388 0.710502 -0.924566
head 6.60116 0.178495 0.0827579
rclavicle -1.17283e-014 -1.51076e-014
rhumerus -49.0841 -17.7515 -65.3992
rradius 21.5028
rwrist 30.9659
rhand -16.1387 -24.5114
rfingers 7.12502
rthumb 10.0663 -54.2506
lclavicle -1.17283e-014 -1.51076e-014
lhumerus -43.3554 9.01504 78.3119
lradius 12.188
lwrist 2.77744
lhand -21.6838 -2.48072
lfingers 7.12502
lthumb 4.71406 27.4468
rfemur -73.8828 -0.906218 20.3267
rtibia 76.2353
rfoot -32.0936 -14.4695
rtoes 1.42652
lfemur -73.6582 5.46643 -22.0185
ltibia 75.3068
lfoot -26.3932 19.2938
ltoes -7.11363
155
root 0.22665 14.7322 -15.7468 27.8736 0.699053 -1.17148
lowerback 23.8642 0.563228 -1.69206
upperback 5.97976 0.548603 2.68102
thorax -6.74026 0.285982 3.74334
lowerneck -22.4282 -0.0175321 -1.92309
upperneck 9.76634 0.692027 -0.933955
head 6.58286 0.168328 0.0827736
rclavicle 9.54166e-015 4.01545e-014
rhumerus -48.2093 -17.9158 -65.6814
rradius 21.2083
rwrist 31.485
rhand -16.1446 -24.4229
rfingers 7.12502
rthumb 10.0607 -54.1624
lclavicle 9.54166e-015 4.01545e-014
lhumerus -42.4484 10.5852 77.2505
lradius 11.4916
lwrist 0.255795
lhand -21.4235 -2.54232
lfingers 7.12502
lthumb 4.96545 27.3795
rfemur -73.9752 -0.852141 20.2557
rtibia 76.2082
rfoot -32.1649 -14.5406
rtoes 1.6354
lfemur -73.7567 5.30257 -21.9858
ltibia 75.2651
lfoot -26.4219 19.5069
ltoes -6.96724
156
root 0.224705 14.7411 -15.7054 28.119 0.819766 -1.14757
lowerback 24.0463 0.560365 -1.67785
upperback 5.86601 0.551597 2.70395
thorax -6.95878 0.29243 3.7627
lowerneck -22.6111 -0.0399308 -1.94439
upperneck 9.63722 0.675617 -0.963394
head 6.56935 0.157613 0.0745036
rclavicle -7.95139e-015 2.78299e-015
rhumerus -47.2273 -18.141 -65.9543
rradius 20.9147
rwrist 31.9987
rhand -16.1769 -24.3631
rfingers 7.12502
rthumb 10.0295 -54.1041
lclavicle -7.95139e-015 2.78299e-015
lhumerus -41.5 12.41 76.0777
lradius 10.8268
lwrist -2.52543
lhand -21.0955 -2.54348
lfingers 7.12502
lthumb 5.28212 27.3707
rfemur -74.005 -0.799716 20.2015
rtibia 76.1452
rfoot -32.2318 -14.5927
rtoes 1.82031
lfemur -73.7964 5.16416 -21.9435
ltibia 75.1932
lfoot -26.4513 19.6776
ltoes -6.89284
157
root 0.222721 14.7524 -15.6596 28.3469 0.929208 -1.13781
lowerback 24.191 0.562618 -1.66542
upperback 5.749 0.561369 2.73087
thorax -7.16265 0.301968 3.78523
lowerneck -22.7893 -0.0581697 -1.94915
upperneck 9.53249 0.66399 -1.01792
head 6.56318 0.14725 0.0559497
rclavicle -7.35503e-015 2.22639e-014
rhumerus -46.1482 -18.4229 -66.2175
rradius 20.6334
rwrist 32.4899
rhand -16.2596 -24.3248
rfingers 7.12502
rthumb 9.94968 -54.0697
lclavicle -7.35503e-015 2.22639e-014
lhumerus -40.534 14.4789 74.8234
lradius 10.2123
lwrist -5.45971
lhand -20.7577 -2.5398
lfingers 7.12502
lthumb 5.6083 27.366
rfemur -73.9777 -0.744138 20.164
rtibia 76.0459
rfoot -32.2879 -14.6272
rtoes 1.97917
lfemur -73.783 5.05709 -21.8938
ltibia 75.0922
lfoot -26.4771 19.8135
ltoes -6.88534
158
root 0.220693 14.7665 -15.6089 28.5528 1.02588 -1.14363
lowerback 24.2978 0.569854 -1.65301
upperback 5.63133 0.57796 2.76016
thorax -7.34872 0.314491 3.80803
lowerneck -22.9654 -0.0721458 -1.94066
upperneck 9.44994 0.657652 -1.09381
head 6.56401 0.137686 0.0289004
rclavicle 6.95746e-015 -1.25234e-014
rhumerus -44.9757 -18.7719 -66.4695
rradius 20.3777
rwrist 32.9972
rhand -16.3707 -24.3284
rfingers 7.12502
rthumb 9.84256 -54.0784
lclavicle 6.95746e-015 -1.25234e-014
lhumerus -39.2263 15.3207 74.752
lradius 9.66993
lwrist -6.59247
lhand -20.6197 -2.30921
lfingers 7.12502
lthumb 5.74154 27.593
rfemur -73.8852 -0.682846 20.1443
rtibia 75.9072
rfoot -32.3284 -14.6476
rtoes 2.10597
lfemur -73.7084 4.98313 -21.8351
ltibia 74.9614
lfoot -26.5055 19.9209
ltoes -6.91097
159
root 0.218581 14.7835 -15.5533 28.74 1.1103 -1.16479
lowerback 24.3607 0.581479 -1.64332
upperback 5.51116 0.600157 2.79354
thorax -7.5159 0.329488 3.83481
lowerneck -23.1413 -0.0804882 -1.92162
upperneck 9.3911 0.658755 -1.18755
head 6.57262 0.130129 -0.00480821
rclavicle -3.77691e-015 -1.31198e-014
rhumerus -43.7182 -19.1905 -66.7062
rradius 20.1552
rwrist 33.539
rhand -16.5309 -24.3604
rfingers 7.12502
rthumb 9.68799 -54.1176
lclavicle -3.77691e-015 -1.31198e-014
lhumerus -37.8438 16.1745 74.7343
lradius 9.20488
lwrist -7.53443
lhand -20.4807 -2.03611
lfingers 7.12502
lthumb 5.87571 27.8624
rfemur -73.731 -0.618397 20.1442
rtibia 75.7295
rfoot -32.3476 -14.6555
rtoes 2.20343
lfemur -73.5745 4.94108 -21.7678
ltibia 74.8006
lfoot -26.5349 20.0098
ltoes -6.96538
